<?xml version="1.0" standalone="no"?>
<!DOCTYPE svg PUBLIC "-//W3C//DTD SVG 20010904//EN"
 "http://www.w3.org/TR/2001/REC-SVG-20010904/DTD/svg10.dtd">
<svg version="1.0" xmlns="http://www.w3.org/2000/svg"
 width="411.000000pt" height="823.000000pt" viewBox="0 0 411.000000 823.000000"
 preserveAspectRatio="xMidYMid meet">

<g transform="translate(0.000000,823.000000) scale(0.100000,-0.100000)"
fill="#000000" stroke="none">
<path d="M507 4403 c-9 -2 -26 -23 -38 -46 l-20 -42 31 -27 c64 -59 187 -24
174 49 -6 32 -39 62 -69 63 -11 0 -29 2 -40 4 -11 2 -28 2 -38 -1z m63 -28 c0
-8 -7 -15 -15 -15 -8 0 -15 7 -15 15 0 8 7 15 15 15 8 0 15 -7 15 -15z"/>
<path d="M7 4323 c-12 -11 -8 -51 6 -57 10 -5 10 -7 0 -12 -16 -7 -18 -124 -3
-124 6 0 10 5 10 10 0 6 11 10 24 10 17 0 27 9 36 30 7 17 17 30 22 30 6 0 0
15 -14 33 -13 17 -29 44 -36 60 -11 26 -31 35 -45 20z"/>
<path d="M318 3981 c-73 -19 -92 -31 -114 -72 -24 -47 -11 -139 20 -139 6 0
22 -14 36 -30 15 -17 36 -32 47 -33 19 -1 20 -3 7 -21 -18 -27 -18 -42 1 -26
13 11 15 7 15 -25 0 -30 -3 -35 -13 -26 -21 17 -51 -21 -43 -53 5 -20 1 -26
-16 -32 -36 -12 -45 -13 -82 -4 -24 5 -37 4 -40 -4 -2 -6 -5 -3 -5 7 -1 9 -5
17 -10 17 -5 0 -12 10 -16 23 -7 21 -8 20 -14 -8 l-7 -30 -7 28 c-4 15 -5 32
-1 38 9 16 -5 61 -17 53 -8 -4 -8 -8 -1 -13 18 -11 -2 -31 -26 -24 -12 3 -19
9 -16 14 3 5 0 9 -6 9 -13 0 -12 -248 2 -256 6 -4 8 3 4 17 -7 24 -7 24 8 -1
8 -14 13 -32 10 -42 -3 -9 1 -20 7 -24 9 -5 10 -2 5 11 -7 18 -6 18 14 0 11
-10 19 -23 18 -29 -4 -19 23 -59 73 -108 40 -40 44 -48 26 -48 -20 0 -20 0 -1
-15 13 -10 14 -14 5 -15 -11 0 -11 -3 0 -17 13 -16 12 -17 -4 -4 -9 8 -15 16
-12 19 3 3 -7 19 -22 35 -23 25 -25 29 -8 23 14 -5 17 -4 9 4 -14 14 -54 21
-54 10 0 -5 5 -12 11 -15 6 -4 25 -40 44 -80 18 -40 38 -76 46 -80 9 -6 10 -3
5 11 -6 15 -3 14 18 -5 30 -28 31 -26 11 23 -13 32 -13 36 0 36 9 0 12 -6 8
-17 -4 -11 -3 -14 5 -9 7 4 15 1 18 -8 8 -22 21 -20 27 4 10 38 24 20 23 -30
-1 -27 3 -50 9 -50 5 -1 -2 -7 -17 -15 -30 -17 -62 -10 -54 11 6 16 -10 19
-19 4 -3 -6 7 -18 24 -28 17 -9 31 -25 31 -34 0 -13 8 -18 28 -17 15 0 21 3
15 6 -22 8 -14 22 21 37 37 15 56 38 38 44 -15 5 -16 39 -1 48 8 4 9 -1 4 -16
-5 -15 -4 -20 4 -16 7 5 11 -4 12 -26 0 -18 3 -26 6 -18 3 8 11 22 19 30 17
20 21 72 10 148 l-8 62 -42 0 c-70 0 -128 70 -156 188 -6 28 -17 55 -24 60
-16 10 -49 63 -43 69 3 3 13 -9 21 -26 24 -46 45 -53 95 -30 24 10 62 19 85
19 43 0 157 50 197 86 10 9 20 15 22 13 13 -19 27 -66 28 -97 1 -37 1 -37 8
-7 9 34 37 91 49 99 7 4 7 22 3 70 -1 5 -7 3 -15 -3 -12 -10 -13 -8 -9 8 3 12
10 21 16 21 6 0 8 3 4 6 -3 3 -22 -10 -42 -30 -39 -39 -56 -44 -79 -21 -8 8
-21 15 -28 15 -15 1 -48 24 -48 34 0 4 5 4 12 0 8 -5 9 0 6 14 -4 12 -3 20 2
17 4 -2 7 19 6 49 0 33 6 62 16 78 31 48 -7 147 -64 167 -39 14 -48 13 -130
-8z"/>
<path d="M802 3862 c-15 -68 -15 -73 3 -66 11 5 15 -2 15 -26 0 -22 9 -40 28
-58 16 -15 31 -32 33 -39 2 -7 9 -9 15 -5 16 10 28 52 15 52 -6 0 -8 7 -5 15
4 8 -9 32 -30 57 -20 23 -36 46 -36 52 -1 6 -7 25 -14 41 l-13 30 -11 -53z"/>
<path d="M722 3884 c-13 -9 -22 -26 -22 -41 0 -27 0 -27 19 -7 17 19 37 64 29
64 -2 0 -14 -7 -26 -16z"/>
<path d="M24 3695 c-6 -14 19 -49 28 -39 8 8 -4 54 -13 54 -6 0 -12 -7 -15
-15z"/>
<path d="M230 3620 c0 -5 5 -10 11 -10 5 0 7 5 4 10 -3 6 -8 10 -11 10 -2 0
-4 -4 -4 -10z"/>
<path d="M241 3583 c0 -5 4 -17 9 -28 8 -18 9 -17 9 8 1 15 -3 27 -9 27 -5 0
-10 -3 -9 -7z"/>
<path d="M607 3396 c-4 -15 -6 -31 -2 -34 10 -10 16 6 13 35 l-3 28 -8 -29z"/>
<path d="M0 3292 c0 -10 22 -32 32 -32 15 0 8 15 -12 28 -11 7 -20 9 -20 4z"/>
<path d="M345 2900 c3 -5 8 -10 11 -10 2 0 4 5 4 10 0 6 -5 10 -11 10 -5 0 -7
-4 -4 -10z"/>
<path d="M340 2844 c-14 -8 -38 -14 -53 -14 -16 0 -37 -5 -48 -10 -15 -8 -19
-7 -19 5 0 28 -37 10 -106 -54 -42 -38 -64 -65 -56 -68 7 -3 18 -10 25 -17 14
-14 90 -29 82 -16 -7 11 14 18 45 15 59 -6 56 -5 39 -18 -12 -9 -16 -23 -13
-46 5 -45 9 -47 35 -23 12 12 37 28 55 37 34 16 43 30 23 37 -5 2 4 14 22 27
20 15 34 20 38 13 9 -15 51 -3 51 13 0 7 6 15 13 18 14 5 -29 57 -47 57 -6 0
-22 13 -36 29 -23 26 -27 27 -50 15z"/>
<path d="M520 2828 c0 -12 1 -19 3 -17 1 2 9 12 16 22 12 14 11 17 -3 17 -10
0 -16 -8 -16 -22z"/>
<path d="M480 2820 c0 -5 7 -10 15 -10 8 0 15 5 15 10 0 6 -7 10 -15 10 -8 0
-15 -4 -15 -10z"/>
<path d="M541 2807 c-6 -6 -11 -15 -11 -21 0 -6 5 -5 11 1 9 9 15 8 26 -3 18
-18 33 -18 33 0 0 26 -40 42 -59 23z"/>
<path d="M37 2763 c-4 -3 -7 -11 -7 -17 0 -6 5 -5 12 2 6 6 9 14 7 17 -3 3 -9
2 -12 -2z"/>
<path d="M384 2685 c-12 -9 -14 -14 -6 -15 7 0 10 -4 7 -10 -9 -15 31 -12 43
3 18 21 -21 40 -44 22z"/>
<path d="M5 2404 c4 -81 10 -99 22 -68 5 10 15 20 23 20 8 1 24 5 35 10 18 7
19 6 5 -11 -14 -17 -13 -18 13 -11 22 5 27 4 21 -6 -6 -11 -5 -11 8 0 20 16
32 1 22 -30 -6 -19 -5 -20 8 -8 23 24 27 46 12 68 -8 11 -11 22 -6 25 4 2 2 3
-4 1 -6 -1 -22 11 -34 28 -13 17 -18 28 -11 24 6 -4 11 -2 11 3 0 17 -13 13
-41 -13 -20 -18 -30 -21 -44 -14 -14 8 -15 12 -4 19 10 6 8 9 -9 9 -13 0 -21
4 -17 9 3 5 1 12 -4 15 -5 4 -8 -25 -6 -70z"/>
<path d="M355 520 c-10 -32 -26 -42 -44 -27 -11 10 -13 9 -9 -3 3 -8 1 -25 -3
-37 -8 -22 -2 -28 24 -24 18 3 4 -15 -23 -31 -17 -9 -30 -22 -30 -28 0 -14 13
-13 36 5 10 8 27 15 38 15 16 0 16 -2 6 -16 -8 -8 -9 -14 -4 -13 15 5 84 -22
84 -32 0 -5 -9 -9 -20 -9 -11 0 -20 -3 -20 -6 0 -12 35 -33 54 -34 10 0 24 -8
31 -17 11 -15 15 -15 29 -4 11 10 13 17 6 21 -7 4 -6 16 5 36 8 16 15 39 15
52 0 27 -27 82 -40 82 -5 0 -12 11 -16 25 -3 14 -11 22 -17 18 -7 -4 -8 1 -4
13 7 18 7 18 -8 0 -8 -11 -15 -23 -15 -28 0 -19 -20 -6 -26 17 -3 14 -12 25
-19 25 -7 0 -15 6 -18 13 -2 6 -7 1 -12 -13z"/>
<path d="M236 464 c-9 -22 3 -32 14 -14 12 19 12 30 1 30 -5 0 -12 -7 -15 -16z"/>
<path d="M205 420 c3 -5 8 -10 11 -10 2 0 4 5 4 10 0 6 -5 10 -11 10 -5 0 -7
-4 -4 -10z"/>
<path d="M769 394 c-11 -22 -13 -38 -7 -51 5 -10 0 -7 -11 7 -18 21 -22 23
-31 10 -18 -27 -11 -70 15 -95 36 -37 106 -35 131 2 24 38 21 71 -11 120 -29
44 -45 47 -45 10 0 -12 -5 -29 -11 -37 -8 -12 -9 -11 -4 6 3 12 2 30 -2 41 -7
18 -9 17 -24 -13z"/>
<path d="M180 394 c0 -8 5 -12 10 -9 6 4 8 11 5 16 -9 14 -15 11 -15 -7z"/>
<path d="M174 336 c-8 -11 -14 -24 -14 -28 0 -11 63 26 67 39 7 20 -38 10 -53
-11z"/>
<path d="M665 283 c2 -16 7 -37 11 -47 6 -17 3 -16 -27 5 -19 13 -37 28 -40
33 -4 5 -12 5 -18 2 -6 -4 -11 -2 -11 5 0 7 -8 5 -20 -6 -23 -21 -26 -41 -7
-52 8 -4 19 -17 25 -28 11 -19 11 -18 12 7 0 39 31 45 66 13 38 -35 49 -19 28
44 -18 57 -25 65 -19 24z"/>
<path d="M20 35 c-7 -9 -11 -17 -9 -20 7 -6 484 -18 478 -11 -3 3 -77 10 -165
16 -187 11 -248 17 -273 25 -10 3 -24 -1 -31 -10z"/>
<path d="M651 34 c0 -11 3 -14 6 -6 3 7 2 16 -1 19 -3 4 -6 -2 -5 -13z"/>
<path d="M1668 13 c7 -3 16 -2 19 1 4 3 -2 6 -13 5 -11 0 -14 -3 -6 -6z"/>
<path d="M728 3 c6 -2 18 -2 25 0 6 3 1 5 -13 5 -14 0 -19 -2 -12 -5z"/>
</g>
</svg>
